<svg width="200" height="200" version="1.1" xmlns="http://www.w3.org/2000/svg">

<path d="M 100 150 Q 100 120, 160 130" stroke="rgb(128, 128, 255)" stroke-width="10" fill="transparent" stroke-linecap="round"/>

<path d="M 100 150 Q 100 120, 40 130" stroke="rgb(128, 128, 255)" stroke-width="10" fill="transparent" stroke-linecap="round"/>

<line x1="100" y1="170" x2="170" y2="150" stroke="rgb(128, 128, 255)" fill="transparent" stroke-width="10" stroke-linecap="round"/>

<line x1="100" y1="170" x2="30" y2="150" stroke="rgb(128, 128, 255)" fill="transparent" stroke-width="10" stroke-linecap="round"/>

<line x1="30" y1="50" x2="30" y2="150" stroke="rgb(128, 128, 255)" fill="transparent" stroke-width="10" stroke-linecap="round"/>

<line x1="170" y1="50" x2="170" y2="150" stroke="rgb(128, 128, 255)" fill="transparent" stroke-width="10" stroke-linecap="round"/>

<line x1="40" y1="130" x2="40" y2="40" stroke="rgb(128, 128, 255)" fill="transparent" stroke-width="10" stroke-linecap="round"/>

<line x1="160" y1="130" x2="160" y2="40" stroke="rgb(128, 128, 255)" fill="transparent" stroke-width="10" stroke-linecap="round"/>

<line x1="30" y1="50" x2="40" y2="55" stroke="rgb(128, 128, 255)" fill="transparent" stroke-width="10" stroke-linecap="round"/>

<line x1="170" y1="50" x2="160" y2="55" stroke="rgb(128, 128, 255)" fill="transparent" stroke-width="10" stroke-linecap="round"/>

<path d="M 100 60 Q 100 30, 160 40" stroke="rgb(128, 128, 255)" stroke-width="10" fill="transparent" stroke-linecap="round"/>

<path d="M 100 60 Q 100 30, 40 40" stroke="rgb(128, 128, 255)" stroke-width="10" fill="transparent" stroke-linecap="round"/>

<line x1="100" y1="60" x2="100" y2="150" stroke="rgb(128, 128, 255)" fill="transparent" stroke-width="10" stroke-linecap="round"/>

</svg>